<svg xmlns="http://www.w3.org/2000/svg" viewBox="0 0 32 32" width="32" height="32">
  <circle cx="16" cy="16" r="16" fill="#2775CA"/>
  <path fill="#FFF" d="M16 5.5a10.5 10.5 0 0 0-3.3 20.47v-1.9A8.7 8.7 0 0 1 16 7.3a8.7 8.7 0 0 1 0 17.4c-1.3 0-2.54-.29-3.66-.82l-.84 1.62A10.5 10.5 0 1 0 16 5.5zm-1.05 4.3v1.65c-2.12.35-3.15 1.57-3.15 3.03 0 2.92 3.8 2.5 3.8 4.35 0 .93-.72 1.4-1.78 1.4-1.32 0-2.22-.52-2.73-1.07l-1.12 1.45c.75.82 1.8 1.35 3.23 1.55V23.5h1.9v-1.67c2.18-.32 3.27-1.6 3.27-3.1 0-3-3.8-2.53-3.8-4.32 0-.8.67-1.3 1.68-1.3 1.15 0 1.93.44 2.45.88l1.08-1.42c-.67-.67-1.63-1.16-2.95-1.36V9.8h-1.87zm.05 3.32c.8 0 1.25.35 1.25.83 0 .88-1.25.98-2.5 1.35v-.8c0-.77.58-1.38 1.25-1.38zm0 5.83c-1 0-1.42-.4-1.42-.92 0-.9 1.42-1.03 2.58-1.37v.88c0 .82-.55 1.41-1.16 1.41z"/>
</svg>
